M48
;Layer_Color=6321
;FILE_FORMAT=2:5
INCH,LZ
;TYPE=PLATED
T1F00S00C0.02800
T2F00S00C0.02953
T3F00S00C0.03000
T4F00S00C0.04213
T5F00S00C0.04331
T6F00S00C0.06500
%
T01
X01405Y01302
X0178Y01564
X01693Y01725
X01728Y02355
X02049Y02438
X0139Y02603
T02
X0195Y01175
X0225Y01235
X0285Y0119
Y0159
Y01935
X0258Y0192
X0218
X0225Y01635
X0195Y01575
X0285Y02335
T03
X0111Y0112
Y0122
Y0132
Y0142
Y0152
X02475Y01245
X02575
X0259Y016
X0249
X01975Y01885
X01875
X022Y02345
X023
X0111Y0232
Y0222
Y0212
Y0202
Y0192
Y0182
Y0172
Y0162
Y0242
Y0252
Y0262
Y0272
Y0282
Y0292
Y0302
T04
X0126Y0111
X0136
X0146
X0156
X0166
T05
X01585Y01725
Y01825
Y01925
Y02025
Y02125
Y02225
Y02325
Y02425
Y02525
Y02625
Y02725
Y02825
Y02925
Y03025
X01285
Y02925
Y02825
Y02725
Y02625
Y02525
Y02425
Y02325
Y02225
Y02125
Y02025
Y01925
Y01825
Y01725
T06
X0197496Y02755
X0216Y0263689
Y0287311
M30
