G04 Layer_Physical_Order=1*
G04 Layer_Color=25308*
%FSLAX25Y25*%
%MOIN*%
G70*
G01*
G75*
%ADD10R,0.05906X0.05906*%
%ADD11O,0.01500X0.07874*%
%ADD12R,0.22047X0.08268*%
G04:AMPARAMS|DCode=13|XSize=70.87mil|YSize=118.11mil|CornerRadius=0mil|HoleSize=0mil|Usage=FLASHONLY|Rotation=90.000|XOffset=0mil|YOffset=0mil|HoleType=Round|Shape=Octagon|*
%AMOCTAGOND13*
4,1,8,-0.05906,-0.01772,-0.05906,0.01772,-0.04134,0.03543,0.04134,0.03543,0.05906,0.01772,0.05906,-0.01772,0.04134,-0.03543,-0.04134,-0.03543,-0.05906,-0.01772,0.0*
%
%ADD13OCTAGOND13*%

%ADD14R,0.04724X0.01969*%
%ADD15R,0.06299X0.01969*%
%ADD16C,0.01000*%
%ADD17R,2.09500X0.00000*%
%ADD18C,0.09500*%
%ADD19O,0.07874X0.06299*%
%ADD20R,0.07874X0.06299*%
%ADD21C,0.06693*%
%ADD22R,0.06000X0.06000*%
%ADD23C,0.06000*%
%ADD24R,0.06299X0.06299*%
%ADD25C,0.06299*%
%ADD26C,0.05000*%
D10*
X180000Y291299D02*
D03*
Y278700D02*
D03*
X250000Y291299D02*
D03*
Y278700D02*
D03*
D11*
X181339Y243965D02*
D03*
X178780D02*
D03*
X176220D02*
D03*
X173661D02*
D03*
X181339Y227035D02*
D03*
X178780D02*
D03*
X176220D02*
D03*
X173661D02*
D03*
D12*
X169701Y139500D02*
D03*
X132299D02*
D03*
D13*
X263650Y233500D02*
D03*
D14*
X253807Y227594D02*
D03*
Y239406D02*
D03*
D15*
X254594Y233500D02*
D03*
D16*
X235700Y283200D02*
X254500D01*
X217094Y264595D02*
X235700Y283200D01*
X215595Y264595D02*
X217094D01*
X111000Y142000D02*
Y152000D01*
Y162000D01*
X258000Y233500D02*
X263650D01*
X230000Y234500D02*
X241700D01*
X242700Y233500D01*
X254594D01*
X263650D02*
X285000D01*
X220000Y234500D02*
X224906Y239406D01*
X253807D01*
X181339Y223800D02*
X207600Y197539D01*
Y167900D02*
Y197539D01*
Y167900D02*
X212000Y163500D01*
X225000D01*
X164099Y307200D02*
X180000Y291299D01*
X120500Y307200D02*
X164099D01*
X115500Y302200D02*
X120500Y307200D01*
X115500Y296500D02*
Y302200D01*
X111000Y292000D02*
X115500Y296500D01*
X178780Y243965D02*
Y248150D01*
X176930Y250000D02*
X178780Y248150D01*
X175661Y250000D02*
X176930D01*
X173661Y248000D02*
X175661Y250000D01*
X173661Y243965D02*
Y248000D01*
X254500Y273300D02*
Y283200D01*
X220200Y239000D02*
X254500Y273300D01*
X215500Y239000D02*
X220200D01*
X215500Y230000D02*
Y239000D01*
Y230000D02*
X217906Y227594D01*
X253807D01*
X213500Y242200D02*
X250000Y278700D01*
X213500Y196500D02*
Y242200D01*
Y196500D02*
X218000Y192000D01*
X135500Y135200D02*
X140500Y130200D01*
X132299Y135200D02*
Y139500D01*
X146000Y111000D02*
Y123681D01*
X146823Y124504D01*
Y291677D01*
X146000Y292500D02*
X146823Y291677D01*
X128500Y292500D02*
X146000D01*
X128500Y282500D02*
X140000D01*
X144823Y277677D01*
Y126504D02*
Y277677D01*
X141300Y122981D02*
X144823Y126504D01*
X141300Y106900D02*
Y122981D01*
Y106900D02*
X144000Y104200D01*
X149200D01*
X156000Y111000D01*
X117800Y129200D02*
X136000Y111000D01*
X117800Y129200D02*
Y300300D01*
X120000Y302500D01*
X128500D01*
X169300Y172500D02*
Y210000D01*
X161800Y217500D02*
X169300Y210000D01*
X155500Y217500D02*
X161800D01*
X153000Y220000D02*
X155500Y217500D01*
X128500Y242500D02*
X133500D01*
X139000Y248000D01*
Y260300D01*
X218000Y192000D02*
X229900Y180100D01*
Y148500D02*
Y180100D01*
X211800Y130400D02*
X229900Y148500D01*
X211800Y116000D02*
Y130400D01*
X207500Y111700D02*
X211800Y116000D01*
X190900Y111700D02*
X207500D01*
X186600Y116000D02*
X190900Y111700D01*
X186600Y116000D02*
Y160400D01*
X173661Y173339D02*
X186600Y160400D01*
X173661Y173339D02*
Y227035D01*
X190100Y122400D02*
X195000Y117500D01*
X190100Y122400D02*
Y160000D01*
X178780Y171320D02*
X190100Y160000D01*
X178780Y171320D02*
Y227035D01*
X166000Y111000D02*
X188700D01*
X191700Y108000D01*
X241000D01*
X257500Y124500D01*
X106500Y277500D02*
X111000Y282000D01*
X106500Y166500D02*
Y277500D01*
Y166500D02*
X111000Y162000D01*
X242799Y298500D02*
X250000Y291299D01*
X187201Y298500D02*
X242799D01*
X180000Y291299D02*
X187201Y298500D01*
X250000Y291299D02*
X289900Y251399D01*
Y123900D02*
Y251399D01*
X285000Y119000D02*
X289900Y123900D01*
X111000Y232000D02*
X115600Y227400D01*
Y113700D02*
Y227400D01*
Y113700D02*
X127100Y102200D01*
X155200D01*
X160700Y107700D01*
Y119700D01*
X153700Y126700D02*
X160700Y119700D01*
X153700Y126700D02*
Y150000D01*
X158500Y154800D01*
Y172500D01*
X258000Y177000D02*
X259000Y160000D01*
X258000Y177000D02*
Y192000D01*
X257500Y124500D02*
Y142300D01*
X259000Y143800D01*
Y160000D01*
X158500Y242500D02*
X166100D01*
X167565Y243965D01*
X173661D01*
X173000Y151400D02*
X178000Y156400D01*
X128500Y212500D02*
X133000D01*
X134000Y213500D01*
Y237100D01*
X133600Y237500D02*
X134000Y237100D01*
X125500Y237500D02*
X133600D01*
X123000Y240000D02*
X125500Y237500D01*
X123000Y240000D02*
Y296200D01*
X124000Y297200D01*
X149500D01*
X151000Y295700D01*
Y202200D02*
Y295700D01*
Y202200D02*
X156000Y197200D01*
X162000D01*
X164000Y195200D01*
Y160500D02*
Y195200D01*
Y160500D02*
X169800Y154700D01*
X128900Y139500D02*
X132299D01*
X123000Y145400D02*
X128900Y139500D01*
X123000Y145400D02*
Y221500D01*
X124000Y222500D01*
X128500D01*
X172800Y235500D02*
X176220Y238920D01*
X180000Y268700D02*
X204900Y243800D01*
X180000Y268700D02*
Y278700D01*
X154000Y302500D02*
X158500D01*
X153000Y301500D02*
X154000Y302500D01*
X153000Y260000D02*
Y301500D01*
Y260000D02*
X155500Y257500D01*
X163300D01*
X168000Y252800D01*
X177182D01*
X181339Y248643D01*
Y243965D02*
Y248643D01*
X158500Y292500D02*
X164700D01*
X169200Y288000D01*
Y268572D02*
Y288000D01*
Y268572D02*
X183600Y254172D01*
Y228000D02*
Y254172D01*
X182600Y227000D02*
X183600Y228000D01*
X181339Y227000D02*
Y227035D01*
X258000Y192000D02*
Y233500D01*
X254594D02*
X258000D01*
X169800Y139500D02*
Y154700D01*
X173000Y139500D02*
Y151400D01*
X169701Y139500D02*
X169800D01*
X173000D01*
X132299Y135200D02*
X135500D01*
X176220Y227035D02*
Y238920D01*
Y243965D01*
X153000Y220000D02*
Y260000D01*
X181339Y223800D02*
Y227000D01*
X182600D01*
X100000Y100000D02*
Y321000D01*
Y100000D02*
X309500D01*
Y321000D01*
X100000D02*
X309500D01*
D17*
X204750Y321000D02*
D03*
D18*
X216000Y263689D02*
D03*
Y287311D02*
D03*
X197496Y275500D02*
D03*
D19*
X158500Y172500D02*
D03*
Y182500D02*
D03*
Y192500D02*
D03*
Y202500D02*
D03*
Y212500D02*
D03*
Y222500D02*
D03*
Y232500D02*
D03*
Y242500D02*
D03*
Y252500D02*
D03*
Y262500D02*
D03*
Y272500D02*
D03*
Y282500D02*
D03*
Y292500D02*
D03*
Y302500D02*
D03*
X128500Y172500D02*
D03*
Y182500D02*
D03*
Y192500D02*
D03*
Y202500D02*
D03*
Y212500D02*
D03*
Y222500D02*
D03*
Y232500D02*
D03*
Y242500D02*
D03*
Y252500D02*
D03*
Y262500D02*
D03*
Y272500D02*
D03*
Y282500D02*
D03*
Y292500D02*
D03*
D20*
Y302500D02*
D03*
D21*
X195000Y117500D02*
D03*
Y157500D02*
D03*
X285000Y193500D02*
D03*
Y233500D02*
D03*
X258000Y192000D02*
D03*
X218000D02*
D03*
X225000Y123500D02*
D03*
Y163500D02*
D03*
X285000Y119000D02*
D03*
Y159000D02*
D03*
D22*
X247500Y124500D02*
D03*
X249000Y160000D02*
D03*
X220000Y234500D02*
D03*
X187500Y188500D02*
D03*
D23*
X257500Y124500D02*
D03*
X259000Y160000D02*
D03*
X111000Y112000D02*
D03*
Y122000D02*
D03*
Y132000D02*
D03*
Y142000D02*
D03*
Y152000D02*
D03*
Y162000D02*
D03*
Y172000D02*
D03*
Y182000D02*
D03*
Y192000D02*
D03*
Y202000D02*
D03*
Y212000D02*
D03*
Y222000D02*
D03*
Y232000D02*
D03*
Y242000D02*
D03*
Y252000D02*
D03*
Y262000D02*
D03*
Y272000D02*
D03*
Y282000D02*
D03*
Y292000D02*
D03*
Y302000D02*
D03*
X230000Y234500D02*
D03*
X197500Y188500D02*
D03*
D24*
X166000Y111000D02*
D03*
D25*
X156000D02*
D03*
X146000D02*
D03*
X136000D02*
D03*
X126000D02*
D03*
D26*
X140500Y130200D02*
D03*
X169300Y172500D02*
D03*
X139000Y260300D02*
D03*
X178000Y156400D02*
D03*
X172800Y235500D02*
D03*
X204900Y243800D02*
D03*
M02*
