G04 Layer_Color=15132400*
%FSLAX25Y25*%
%MOIN*%
G70*
G01*
G75*
%ADD16C,0.01000*%
%ADD27C,0.00787*%
%ADD28C,0.00984*%
%ADD29C,0.00800*%
D16*
X163992Y131232D02*
G03*
X163992Y147768I0J8268D01*
G01*
X138008D02*
G03*
X138008Y131232I0J-8268D01*
G01*
X221500Y259500D02*
X235000D01*
X195500D02*
X210500D01*
X195500Y283000D02*
Y319000D01*
Y259500D02*
Y268000D01*
Y319000D02*
X235000D01*
Y259500D02*
Y319000D01*
X199500Y122500D02*
Y152500D01*
X190275Y122500D02*
X199500D01*
X190275D02*
Y152500D01*
X199500D01*
X289500Y198500D02*
Y228500D01*
X280275Y198500D02*
X289500D01*
X280275D02*
Y228500D01*
X289500D01*
X223000Y196500D02*
X253000D01*
Y187275D02*
Y196500D01*
X223000Y187275D02*
X253000D01*
X223000D02*
Y196500D01*
X128559Y148752D02*
X173441D01*
X128559Y130248D02*
Y148752D01*
Y130248D02*
X173441D01*
Y148752D01*
X137220Y131232D02*
X164780D01*
X137220Y147768D02*
X164780D01*
X229500Y128500D02*
Y158500D01*
X220275Y128500D02*
X229500D01*
X220275D02*
Y158500D01*
X229500D01*
X289500Y124000D02*
Y154000D01*
X280275Y124000D02*
X289500D01*
X280275D02*
Y154000D01*
X289500D01*
X186499Y316998D02*
X184499D01*
X185499D01*
Y312000D01*
X184499Y311000D01*
X183500D01*
X182500Y312000D01*
X188498Y311000D02*
X190497D01*
X189498D01*
Y316998D01*
X188498Y315998D01*
X121900Y158298D02*
X125899Y152300D01*
Y158298D02*
X121900Y152300D01*
X127898D02*
X129897D01*
X128898D01*
Y158298D01*
X127898Y157298D01*
X170300Y258998D02*
Y254000D01*
X171300Y253000D01*
X173299D01*
X174299Y254000D01*
Y258998D01*
X176298Y257998D02*
X177298Y258998D01*
X179297D01*
X180297Y257998D01*
Y256999D01*
X179297Y255999D01*
X178297D01*
X179297D01*
X180297Y254999D01*
Y254000D01*
X179297Y253000D01*
X177298D01*
X176298Y254000D01*
X251950Y252548D02*
Y247550D01*
X252950Y246550D01*
X254949D01*
X255949Y247550D01*
Y252548D01*
X261947Y246550D02*
X257948D01*
X261947Y250549D01*
Y251548D01*
X260947Y252548D01*
X258948D01*
X257948Y251548D01*
X123550Y317048D02*
Y312050D01*
X124550Y311050D01*
X126549D01*
X127549Y312050D01*
Y317048D01*
X129548Y311050D02*
X131547D01*
X130548D01*
Y317048D01*
X129548Y316048D01*
X190750Y164250D02*
Y170248D01*
X193749D01*
X194749Y169248D01*
Y167249D01*
X193749Y166249D01*
X190750D01*
X192749D02*
X194749Y164250D01*
X200747Y170248D02*
X196748D01*
Y167249D01*
X198747Y168249D01*
X199747D01*
X200747Y167249D01*
Y165250D01*
X199747Y164250D01*
X197748D01*
X196748Y165250D01*
X280800Y240200D02*
Y246198D01*
X283799D01*
X284799Y245198D01*
Y243199D01*
X283799Y242199D01*
X280800D01*
X282799D02*
X284799Y240200D01*
X289797D02*
Y246198D01*
X286798Y243199D01*
X290797D01*
X215300Y200000D02*
Y205998D01*
X218299D01*
X219299Y204998D01*
Y202999D01*
X218299Y201999D01*
X215300D01*
X217299D02*
X219299Y200000D01*
X221298Y204998D02*
X222298Y205998D01*
X224297D01*
X225297Y204998D01*
Y203999D01*
X224297Y202999D01*
X223297D01*
X224297D01*
X225297Y201999D01*
Y201000D01*
X224297Y200000D01*
X222298D01*
X221298Y201000D01*
X220800Y170200D02*
Y176198D01*
X223799D01*
X224799Y175198D01*
Y173199D01*
X223799Y172199D01*
X220800D01*
X222799D02*
X224799Y170200D01*
X230797D02*
X226798D01*
X230797Y174199D01*
Y175198D01*
X229797Y176198D01*
X227798D01*
X226798Y175198D01*
X280800Y165700D02*
Y171698D01*
X283799D01*
X284799Y170698D01*
Y168699D01*
X283799Y167699D01*
X280800D01*
X282799D02*
X284799Y165700D01*
X286798D02*
X288797D01*
X287798D01*
Y171698D01*
X286798Y170698D01*
X125599Y125398D02*
X123599D01*
X124599D01*
Y120400D01*
X123599Y119400D01*
X122600D01*
X121600Y120400D01*
X127598Y124398D02*
X128598Y125398D01*
X130597D01*
X131597Y124398D01*
Y123399D01*
X130597Y122399D01*
X129597D01*
X130597D01*
X131597Y121399D01*
Y120400D01*
X130597Y119400D01*
X128598D01*
X127598Y120400D01*
X110999Y316898D02*
X108999D01*
X109999D01*
Y311900D01*
X108999Y310900D01*
X108000D01*
X107000Y311900D01*
X116997Y310900D02*
X112998D01*
X116997Y314899D01*
Y315898D01*
X115997Y316898D01*
X113998D01*
X112998Y315898D01*
X176900Y304398D02*
Y298400D01*
X179899D01*
X180899Y299400D01*
Y303398D01*
X179899Y304398D01*
X176900D01*
X186897Y298400D02*
X182898D01*
X186897Y302399D01*
Y303398D01*
X185897Y304398D01*
X183898D01*
X182898Y303398D01*
X246900Y304398D02*
Y298400D01*
X249899D01*
X250899Y299400D01*
Y303398D01*
X249899Y304398D01*
X246900D01*
X252898Y298400D02*
X254897D01*
X253898D01*
Y304398D01*
X252898Y303398D01*
X244599Y145398D02*
X243599Y146398D01*
X241600D01*
X240600Y145398D01*
Y141400D01*
X241600Y140400D01*
X243599D01*
X244599Y141400D01*
X249597Y140400D02*
Y146398D01*
X246598Y143399D01*
X250597D01*
X246099Y180898D02*
X245099Y181898D01*
X243100D01*
X242100Y180898D01*
Y176900D01*
X243100Y175900D01*
X245099D01*
X246099Y176900D01*
X248098Y180898D02*
X249098Y181898D01*
X251097D01*
X252097Y180898D01*
Y179899D01*
X251097Y178899D01*
X250097D01*
X251097D01*
X252097Y177899D01*
Y176900D01*
X251097Y175900D01*
X249098D01*
X248098Y176900D01*
X184599Y209398D02*
X183599Y210398D01*
X181600D01*
X180600Y209398D01*
Y205400D01*
X181600Y204400D01*
X183599D01*
X184599Y205400D01*
X190597Y204400D02*
X186598D01*
X190597Y208399D01*
Y209398D01*
X189597Y210398D01*
X187598D01*
X186598Y209398D01*
X217099Y255398D02*
X216099Y256398D01*
X214100D01*
X213100Y255398D01*
Y251400D01*
X214100Y250400D01*
X216099D01*
X217099Y251400D01*
X219098Y250400D02*
X221097D01*
X220098D01*
Y256398D01*
X219098Y255398D01*
X100000Y100000D02*
Y321000D01*
Y100000D02*
X309500D01*
Y321000D01*
X100000D02*
X309500D01*
D27*
X141000Y307500D02*
G03*
X146000Y307500I2500J0D01*
G01*
X176851Y286968D02*
X183150D01*
X246851D02*
X253150D01*
X123028Y167500D02*
Y307500D01*
Y167500D02*
X163972D01*
Y307500D01*
X146000D02*
X163972D01*
X123028D02*
X141000D01*
X183602Y232547D02*
Y238453D01*
X171398Y232547D02*
Y238453D01*
X183602D01*
X171398Y232547D02*
X183602D01*
X121000Y106000D02*
X171984D01*
Y116000D01*
X121000D02*
X171984D01*
X121000Y106000D02*
Y116000D01*
X266012Y224445D02*
Y228382D01*
X255776Y224445D02*
X266012D01*
Y238618D02*
Y242555D01*
X255776D02*
X266012D01*
D28*
X171102Y227035D02*
G03*
X171102Y227035I-492J0D01*
G01*
X253709Y242555D02*
G03*
X253709Y242555I-492J0D01*
G01*
D29*
X246000Y117999D02*
X248666D01*
X247333Y119332D02*
Y116666D01*
X247500Y153499D02*
X250166D01*
X248833Y154832D02*
Y152166D01*
X218500Y227999D02*
X221166D01*
X219833Y229332D02*
Y226666D01*
X186000Y181999D02*
X188666D01*
X187333Y183332D02*
Y180666D01*
M02*
