G04 Layer_Color=20142*
%FSLAX25Y25*%
%MOIN*%
G70*
G01*
G75*
%ADD16C,0.01000*%
%ADD21C,0.06693*%
%ADD30R,0.06706X0.06706*%
%ADD31O,0.02300X0.08674*%
%ADD32R,0.22847X0.09068*%
G04:AMPARAMS|DCode=33|XSize=78.87mil|YSize=126.11mil|CornerRadius=0mil|HoleSize=0mil|Usage=FLASHONLY|Rotation=90.000|XOffset=0mil|YOffset=0mil|HoleType=Round|Shape=Octagon|*
%AMOCTAGOND33*
4,1,8,-0.06306,-0.01972,-0.06306,0.01972,-0.04334,0.03943,0.04334,0.03943,0.06306,0.01972,0.06306,-0.01972,0.04334,-0.03943,-0.04334,-0.03943,-0.06306,-0.01972,0.0*
%
%ADD33OCTAGOND33*%

%ADD34R,0.05524X0.02769*%
%ADD35R,0.07099X0.02769*%
%ADD36C,0.10300*%
%ADD37O,0.08674X0.07099*%
%ADD38R,0.08674X0.07099*%
%ADD39C,0.07493*%
%ADD40R,0.06800X0.06800*%
%ADD41C,0.06800*%
%ADD42R,0.06693X0.06693*%
%ADD43C,0.05800*%
D16*
X100000Y100000D02*
Y321000D01*
Y100000D02*
X309500D01*
Y321000D01*
X100000D02*
X309500D01*
D21*
X156000Y111000D02*
D03*
X146000D02*
D03*
X136000D02*
D03*
X126000D02*
D03*
D30*
X180000Y291299D02*
D03*
Y278700D02*
D03*
X250000Y291299D02*
D03*
Y278700D02*
D03*
D31*
X181339Y243965D02*
D03*
X178780D02*
D03*
X176220D02*
D03*
X173661D02*
D03*
X181339Y227035D02*
D03*
X178780D02*
D03*
X176220D02*
D03*
X173661D02*
D03*
D32*
X169701Y139500D02*
D03*
X132299D02*
D03*
D33*
X263650Y233500D02*
D03*
D34*
X253807Y227594D02*
D03*
Y239406D02*
D03*
D35*
X254594Y233500D02*
D03*
D36*
X216000Y263689D02*
D03*
Y287311D02*
D03*
X197496Y275500D02*
D03*
D37*
X158500Y172500D02*
D03*
Y182500D02*
D03*
Y192500D02*
D03*
Y202500D02*
D03*
Y212500D02*
D03*
Y222500D02*
D03*
Y232500D02*
D03*
Y242500D02*
D03*
Y252500D02*
D03*
Y262500D02*
D03*
Y272500D02*
D03*
Y282500D02*
D03*
Y292500D02*
D03*
Y302500D02*
D03*
X128500Y172500D02*
D03*
Y182500D02*
D03*
Y192500D02*
D03*
Y202500D02*
D03*
Y212500D02*
D03*
Y222500D02*
D03*
Y232500D02*
D03*
Y242500D02*
D03*
Y252500D02*
D03*
Y262500D02*
D03*
Y272500D02*
D03*
Y282500D02*
D03*
Y292500D02*
D03*
D38*
Y302500D02*
D03*
D39*
X195000Y117500D02*
D03*
Y157500D02*
D03*
X285000Y193500D02*
D03*
Y233500D02*
D03*
X258000Y192000D02*
D03*
X218000D02*
D03*
X225000Y123500D02*
D03*
Y163500D02*
D03*
X285000Y119000D02*
D03*
Y159000D02*
D03*
D40*
X247500Y124500D02*
D03*
X249000Y160000D02*
D03*
X220000Y234500D02*
D03*
X187500Y188500D02*
D03*
D41*
X257500Y124500D02*
D03*
X259000Y160000D02*
D03*
X111000Y112000D02*
D03*
Y122000D02*
D03*
Y132000D02*
D03*
Y142000D02*
D03*
Y152000D02*
D03*
Y162000D02*
D03*
Y172000D02*
D03*
Y182000D02*
D03*
Y192000D02*
D03*
Y202000D02*
D03*
Y212000D02*
D03*
Y222000D02*
D03*
Y232000D02*
D03*
Y242000D02*
D03*
Y252000D02*
D03*
Y262000D02*
D03*
Y272000D02*
D03*
Y282000D02*
D03*
Y292000D02*
D03*
Y302000D02*
D03*
X230000Y234500D02*
D03*
X197500Y188500D02*
D03*
D42*
X166000Y111000D02*
D03*
D43*
X140500Y130200D02*
D03*
X169300Y172500D02*
D03*
X139000Y260300D02*
D03*
X178000Y156400D02*
D03*
X172800Y235500D02*
D03*
X204900Y243800D02*
D03*
M02*
